name rise49.25peak52.1432fall72.8391.mot
datacolumns 19
datarows 18
range 12.26829800000000 12.29663100000000
endheader
time	ground_force1_vx	ground_force1_vy	ground_force1_vz	ground_force1_px	ground_force1_py	ground_force1_pz	ground_force2_vx	ground_force2_vy	ground_force2_vz	ground_force2_px	ground_force2_py	ground_force2_pz	ground_torque1_x	ground_torque1_y	ground_torque1_z	ground_torque2_x	ground_torque2_y	ground_torque2_z	
12.26829800000000	69.97934900000000	776.14411500000006	55.27754400000000	0.33981100000000	0.00000000000000	0.09963300000000	0.00000000000000	0.00000000000000	0.00000000000000	0.00000000000000	0.00000000000000	0.00000000000000	0.00000000000000	22.26312000000000	0.00000000000000	0.00000000000000	0.00000000000000	0.00000000000000	
12.26995200000000	69.39758900000000	779.27122699999995	55.54350700000000	0.33943100000000	0.00000000000000	0.09960000000000	0.00000000000000	0.00000000000000	0.00000000000000	0.00000000000000	0.00000000000000	0.00000000000000	0.00000000000000	22.45824500000000	0.00000000000000	0.00000000000000	0.00000000000000	0.00000000000000	
12.27161900000000	68.80420500000000	782.22839399999998	55.80399600000000	0.33904900000000	0.00000000000000	0.09956800000000	0.00000000000000	0.00000000000000	0.00000000000000	0.00000000000000	0.00000000000000	0.00000000000000	0.00000000000000	22.65214700000000	0.00000000000000	0.00000000000000	0.00000000000000	0.00000000000000	
12.27330000000000	68.20001499999999	785.01459299999999	56.05848400000000	0.33866400000000	0.00000000000000	0.09953600000000	0.00000000000000	0.00000000000000	0.00000000000000	0.00000000000000	0.00000000000000	0.00000000000000	0.00000000000000	22.84431500000000	0.00000000000000	0.00000000000000	0.00000000000000	0.00000000000000	
12.27495200000000	67.58582500000000	787.62909200000001	56.30640000000000	0.33827300000000	0.00000000000000	0.09950500000000	0.00000000000000	0.00000000000000	0.00000000000000	0.00000000000000	0.00000000000000	0.00000000000000	0.00000000000000	23.03420800000000	0.00000000000000	0.00000000000000	0.00000000000000	0.00000000000000	
12.27661400000000	66.96242400000000	790.07146100000000	56.54713100000000	0.33787500000000	0.00000000000000	0.09947500000000	0.00000000000000	0.00000000000000	0.00000000000000	0.00000000000000	0.00000000000000	0.00000000000000	0.00000000000000	23.22125900000000	0.00000000000000	0.00000000000000	0.00000000000000	0.00000000000000	
12.27828100000000	66.33058600000000	792.34156299999995	56.78003400000000	0.33746800000000	0.00000000000000	0.09944500000000	0.00000000000000	0.00000000000000	0.00000000000000	0.00000000000000	0.00000000000000	0.00000000000000	0.00000000000000	23.40488000000000	0.00000000000000	0.00000000000000	0.00000000000000	0.00000000000000	
12.27995600000000	65.69107099999999	794.43956300000002	57.00443500000000	0.33704900000000	0.00000000000000	0.09941500000000	0.00000000000000	0.00000000000000	0.00000000000000	0.00000000000000	0.00000000000000	0.00000000000000	0.00000000000000	23.58446500000000	0.00000000000000	0.00000000000000	0.00000000000000	0.00000000000000	
12.28161500000000	65.04462400000000	796.36592199999996	57.21964200000000	0.33661800000000	0.00000000000000	0.09938600000000	0.00000000000000	0.00000000000000	0.00000000000000	0.00000000000000	0.00000000000000	0.00000000000000	0.00000000000000	23.75939600000000	0.00000000000000	0.00000000000000	0.00000000000000	0.00000000000000	
12.28328700000000	64.39197400000000	798.12139600000000	57.42494500000000	0.33617100000000	0.00000000000000	0.09935800000000	0.00000000000000	0.00000000000000	0.00000000000000	0.00000000000000	0.00000000000000	0.00000000000000	0.00000000000000	23.92904800000000	0.00000000000000	0.00000000000000	0.00000000000000	0.00000000000000	
12.28495500000000	63.73384100000000	799.70703700000001	57.61962800000000	0.33570800000000	0.00000000000000	0.09933000000000	0.00000000000000	0.00000000000000	0.00000000000000	0.00000000000000	0.00000000000000	0.00000000000000	0.00000000000000	24.09279200000000	0.00000000000000	0.00000000000000	0.00000000000000	0.00000000000000	
12.28662100000000	63.07092600000000	801.12418400000001	57.80297200000000	0.33522600000000	0.00000000000000	0.09930300000000	0.00000000000000	0.00000000000000	0.00000000000000	0.00000000000000	0.00000000000000	0.00000000000000	0.00000000000000	24.25000000000000	0.00000000000000	0.00000000000000	0.00000000000000	0.00000000000000	
12.28828200000000	62.40392100000000	802.37446299999999	57.97426200000000	0.33472300000000	0.00000000000000	0.09927600000000	0.00000000000000	0.00000000000000	0.00000000000000	0.00000000000000	0.00000000000000	0.00000000000000	0.00000000000000	24.40005000000000	0.00000000000000	0.00000000000000	0.00000000000000	0.00000000000000	
12.28995600000000	61.73350300000000	803.45977500000004	58.13279000000000	0.33419900000000	0.00000000000000	0.09925000000000	0.00000000000000	0.00000000000000	0.00000000000000	0.00000000000000	0.00000000000000	0.00000000000000	0.00000000000000	24.54233300000000	0.00000000000000	0.00000000000000	0.00000000000000	0.00000000000000	
12.29162200000000	61.06033700000000	804.38229600000000	58.27786800000000	0.33365200000000	0.00000000000000	0.09922400000000	0.00000000000000	0.00000000000000	0.00000000000000	0.00000000000000	0.00000000000000	0.00000000000000	0.00000000000000	24.67625100000000	0.00000000000000	0.00000000000000	0.00000000000000	0.00000000000000	
12.29329800000000	60.38507500000000	805.14446399999997	58.40882600000000	0.33307900000000	0.00000000000000	0.09919900000000	0.00000000000000	0.00000000000000	0.00000000000000	0.00000000000000	0.00000000000000	0.00000000000000	0.00000000000000	24.80122700000000	0.00000000000000	0.00000000000000	0.00000000000000	0.00000000000000	
12.29495100000000	59.70835700000000	805.74897599999997	58.52502200000000	0.33248100000000	0.00000000000000	0.09917300000000	0.00000000000000	0.00000000000000	0.00000000000000	0.00000000000000	0.00000000000000	0.00000000000000	0.00000000000000	24.91670800000000	0.00000000000000	0.00000000000000	0.00000000000000	0.00000000000000	
12.29663100000000	59.03081200000000	806.19877199999996	58.62584600000000	0.33185400000000	0.00000000000000	0.09914800000000	0.00000000000000	0.00000000000000	0.00000000000000	0.00000000000000	0.00000000000000	0.00000000000000	0.00000000000000	25.02216600000000	0.00000000000000	0.00000000000000	0.00000000000000	0.00000000000000	
